<mxfile host="app.diagrams.net" modified="2023-06-08T08:31:57.056Z" agent="Mozilla/5.0 (Macintosh; Intel Mac OS X 10_15_7) AppleWebKit/537.36 (KHTML, like Gecko) Chrome/111.0.0.0 Safari/537.36" etag="QYCuHg57wWnsR8grDU0P" version="21.1.9" type="github">
  <diagram id="C5RBs43oDa-KdzZeNtuy" name="Page-1">
    <mxGraphModel dx="954" dy="1681" grid="1" gridSize="10" guides="1" tooltips="1" connect="1" arrows="1" fold="1" page="1" pageScale="1" pageWidth="827" pageHeight="1169" math="0" shadow="0">
      <root>
        <mxCell id="WIyWlLk6GJQsqaUBKTNV-0" />
        <mxCell id="WIyWlLk6GJQsqaUBKTNV-1" parent="WIyWlLk6GJQsqaUBKTNV-0" />
        <mxCell id="miKGoBRskYg_QnhXFj4N-39" style="edgeStyle=orthogonalEdgeStyle;rounded=0;orthogonalLoop=1;jettySize=auto;html=1;entryX=0.5;entryY=0;entryDx=0;entryDy=0;" edge="1" parent="WIyWlLk6GJQsqaUBKTNV-1" source="miKGoBRskYg_QnhXFj4N-1" target="miKGoBRskYg_QnhXFj4N-4">
          <mxGeometry relative="1" as="geometry" />
        </mxCell>
        <mxCell id="miKGoBRskYg_QnhXFj4N-1" value="创建资源&lt;br&gt;配置变更任务" style="rounded=1;whiteSpace=wrap;html=1;fillColor=#dae8fc;strokeColor=#6c8ebf;" vertex="1" parent="WIyWlLk6GJQsqaUBKTNV-1">
          <mxGeometry x="230" y="-590" width="90" height="40" as="geometry" />
        </mxCell>
        <mxCell id="miKGoBRskYg_QnhXFj4N-40" style="edgeStyle=orthogonalEdgeStyle;rounded=0;orthogonalLoop=1;jettySize=auto;html=1;exitX=0.5;exitY=1;exitDx=0;exitDy=0;entryX=0.5;entryY=0;entryDx=0;entryDy=0;" edge="1" parent="WIyWlLk6GJQsqaUBKTNV-1" source="miKGoBRskYg_QnhXFj4N-4">
          <mxGeometry relative="1" as="geometry">
            <mxPoint x="275" y="-430" as="targetPoint" />
          </mxGeometry>
        </mxCell>
        <mxCell id="miKGoBRskYg_QnhXFj4N-4" value="添加&lt;br&gt;任务条目" style="rounded=1;whiteSpace=wrap;html=1;fillColor=#dae8fc;strokeColor=#6c8ebf;" vertex="1" parent="WIyWlLk6GJQsqaUBKTNV-1">
          <mxGeometry x="230" y="-510" width="90" height="40" as="geometry" />
        </mxCell>
        <mxCell id="miKGoBRskYg_QnhXFj4N-16" value="是" style="edgeStyle=orthogonalEdgeStyle;rounded=0;orthogonalLoop=1;jettySize=auto;html=1;exitX=0;exitY=0.5;exitDx=0;exitDy=0;entryX=1;entryY=0.5;entryDx=0;entryDy=0;" edge="1" parent="WIyWlLk6GJQsqaUBKTNV-1" source="miKGoBRskYg_QnhXFj4N-13" target="miKGoBRskYg_QnhXFj4N-15">
          <mxGeometry relative="1" as="geometry" />
        </mxCell>
        <mxCell id="miKGoBRskYg_QnhXFj4N-18" value="否" style="edgeStyle=orthogonalEdgeStyle;rounded=0;orthogonalLoop=1;jettySize=auto;html=1;exitX=0.5;exitY=1;exitDx=0;exitDy=0;entryX=0.5;entryY=0;entryDx=0;entryDy=0;" edge="1" parent="WIyWlLk6GJQsqaUBKTNV-1" source="miKGoBRskYg_QnhXFj4N-13" target="miKGoBRskYg_QnhXFj4N-20">
          <mxGeometry relative="1" as="geometry">
            <mxPoint x="275" y="-300" as="targetPoint" />
          </mxGeometry>
        </mxCell>
        <mxCell id="miKGoBRskYg_QnhXFj4N-13" value="是否需&lt;br&gt;要审批" style="rhombus;whiteSpace=wrap;html=1;fillColor=#ffe6cc;strokeColor=#d79b00;" vertex="1" parent="WIyWlLk6GJQsqaUBKTNV-1">
          <mxGeometry x="235" y="-430" width="80" height="80" as="geometry" />
        </mxCell>
        <mxCell id="miKGoBRskYg_QnhXFj4N-33" style="edgeStyle=orthogonalEdgeStyle;rounded=0;orthogonalLoop=1;jettySize=auto;html=1;exitX=0.5;exitY=1;exitDx=0;exitDy=0;entryX=0;entryY=0.5;entryDx=0;entryDy=0;" edge="1" parent="WIyWlLk6GJQsqaUBKTNV-1" source="miKGoBRskYg_QnhXFj4N-15" target="miKGoBRskYg_QnhXFj4N-20">
          <mxGeometry relative="1" as="geometry" />
        </mxCell>
        <mxCell id="miKGoBRskYg_QnhXFj4N-15" value="等待工单&lt;br&gt;审批通过" style="rounded=1;whiteSpace=wrap;html=1;fillColor=#dae8fc;strokeColor=#6c8ebf;" vertex="1" parent="WIyWlLk6GJQsqaUBKTNV-1">
          <mxGeometry x="90" y="-410" width="90" height="40" as="geometry" />
        </mxCell>
        <mxCell id="miKGoBRskYg_QnhXFj4N-41" style="edgeStyle=orthogonalEdgeStyle;rounded=0;orthogonalLoop=1;jettySize=auto;html=1;exitX=1;exitY=0.5;exitDx=0;exitDy=0;entryX=0;entryY=0.5;entryDx=0;entryDy=0;" edge="1" parent="WIyWlLk6GJQsqaUBKTNV-1" source="miKGoBRskYg_QnhXFj4N-20" target="miKGoBRskYg_QnhXFj4N-30">
          <mxGeometry relative="1" as="geometry" />
        </mxCell>
        <mxCell id="miKGoBRskYg_QnhXFj4N-20" value="执行&lt;br&gt;变更任务" style="rounded=1;whiteSpace=wrap;html=1;fillColor=#dae8fc;strokeColor=#6c8ebf;" vertex="1" parent="WIyWlLk6GJQsqaUBKTNV-1">
          <mxGeometry x="230" y="-320" width="90" height="40" as="geometry" />
        </mxCell>
        <mxCell id="miKGoBRskYg_QnhXFj4N-30" value="结束" style="rounded=1;whiteSpace=wrap;html=1;fillColor=#f8cecc;strokeColor=#b85450;" vertex="1" parent="WIyWlLk6GJQsqaUBKTNV-1">
          <mxGeometry x="400" y="-320" width="90" height="40" as="geometry" />
        </mxCell>
        <mxCell id="miKGoBRskYg_QnhXFj4N-38" style="edgeStyle=orthogonalEdgeStyle;rounded=0;orthogonalLoop=1;jettySize=auto;html=1;exitX=0.5;exitY=1;exitDx=0;exitDy=0;entryX=0.5;entryY=0;entryDx=0;entryDy=0;" edge="1" parent="WIyWlLk6GJQsqaUBKTNV-1" source="miKGoBRskYg_QnhXFj4N-35" target="miKGoBRskYg_QnhXFj4N-1">
          <mxGeometry relative="1" as="geometry" />
        </mxCell>
        <mxCell id="miKGoBRskYg_QnhXFj4N-35" value="开始" style="rounded=1;whiteSpace=wrap;html=1;fillColor=#d5e8d4;strokeColor=#82b366;" vertex="1" parent="WIyWlLk6GJQsqaUBKTNV-1">
          <mxGeometry x="230" y="-670" width="90" height="40" as="geometry" />
        </mxCell>
      </root>
    </mxGraphModel>
  </diagram>
</mxfile>
